# Blender v2.93.0 OBJ File: 'basic_vase.blend'
# www.blender.org
mtllib basic_vase.mtl
o BasicVase_Cylinder
v 0.000000 -1.000000 -1.000000
v 0.000000 1.000000 -1.685434
v 0.500000 -1.000000 -0.866025
v 0.842717 1.000000 -1.459629
v 0.866025 -1.000000 -0.500000
v 1.459629 1.000000 -0.842717
v 1.000000 -1.000000 0.000000
v 1.685434 1.000000 0.000000
v 0.866025 -1.000000 0.500000
v 1.459629 1.000000 0.842717
v 0.500000 -1.000000 0.866025
v 0.842717 1.000000 1.459629
v -0.000000 -1.000000 1.000000
v -0.000000 1.000000 1.685434
v -0.500000 -1.000000 0.866025
v -0.842717 1.000000 1.459629
v -0.866025 -1.000000 0.500000
v -1.459629 1.000000 0.842717
v -1.000000 -1.000000 -0.000000
v -1.685434 1.000000 -0.000000
v -0.866025 -1.000000 -0.500000
v -1.459629 1.000000 -0.842717
v -0.500000 -1.000000 -0.866025
v -0.842717 1.000000 -1.459628
v 0.000000 -1.200145 -1.000000
v 0.500000 -1.200145 -0.866025
v 0.866025 -1.200145 -0.500000
v 1.000000 -1.200145 0.000000
v 0.866025 -1.200145 0.500000
v 0.500000 -1.200145 0.866025
v -0.000000 -1.200145 1.000000
v -0.500000 -1.200145 0.866025
v -0.866025 -1.200145 0.500000
v -1.000000 -1.200145 -0.000000
v -0.866025 -1.200145 -0.500000
v -0.500000 -1.200145 -0.866025
v 0.000000 -1.000000 -1.084641
v 0.542321 -1.000000 -0.939327
v 0.939327 -1.000000 -0.542321
v 1.084641 -1.000000 0.000000
v 0.939327 -1.000000 0.542321
v 0.542321 -1.000000 0.939327
v -0.000000 -1.000000 1.084641
v -0.542321 -1.000000 0.939327
v -0.939327 -1.000000 0.542320
v -1.084641 -1.000000 -0.000000
v -0.939327 -1.000000 -0.542320
v -0.542321 -1.000000 -0.939327
v 0.000000 -1.200145 -1.084641
v 0.542321 -1.200145 -0.939327
v 0.939327 -1.200145 -0.542321
v 1.084641 -1.200145 0.000000
v 0.939327 -1.200145 0.542321
v 0.542321 -1.200145 0.939327
v -0.000000 -1.200145 1.084641
v -0.542321 -1.200145 0.939327
v -0.939327 -1.200145 0.542320
v -1.084641 -1.200145 -0.000000
v -0.939327 -1.200145 -0.542320
v -0.542321 -1.200145 -0.939327
v 0.842717 1.215198 -1.459629
v 0.000000 1.215198 -1.685434
v 1.459629 1.215198 -0.842717
v 1.685434 1.215198 0.000000
v 1.459629 1.215198 0.842717
v 0.842717 1.215198 1.459629
v -0.000000 1.215198 1.685434
v -0.842717 1.215198 1.459629
v -1.459629 1.215198 0.842717
v -1.685434 1.215198 -0.000000
v -1.459629 1.215198 -0.842717
v -0.842717 1.215198 -1.459628
v 0.883543 1.000000 -1.530341
v 0.000000 1.000000 -1.767086
v 1.530341 1.000000 -0.883543
v 1.767086 1.000000 0.000000
v 1.530341 1.000000 0.883543
v 0.883543 1.000000 1.530341
v -0.000000 1.000000 1.767086
v -0.883543 1.000000 1.530341
v -1.530341 1.000000 0.883543
v -1.767086 1.000000 -0.000000
v -1.530341 1.000000 -0.883543
v -0.883543 1.000000 -1.530341
v 0.883543 1.215198 -1.530341
v 0.000000 1.215198 -1.767086
v 1.530341 1.215198 -0.883543
v 1.767086 1.215198 0.000000
v 1.530341 1.215198 0.883543
v 0.883543 1.215198 1.530341
v -0.000000 1.215198 1.767086
v -0.883543 1.215198 1.530341
v -1.530341 1.215198 0.883543
v -1.767086 1.215198 -0.000000
v -1.530341 1.215198 -0.883543
v -0.883543 1.215198 -1.530341
v 0.737847 0.985912 -1.277988
v 0.000000 0.985912 -1.475694
v 1.277988 0.985912 -0.737847
v 1.475694 0.985912 0.000000
v 1.277988 0.985912 0.737847
v 0.737847 0.985912 1.277988
v -0.000000 0.985912 1.475694
v -0.737847 0.985912 1.277988
v -1.277988 0.985912 0.737847
v -1.475694 0.985912 -0.000000
v -1.277988 0.985912 -0.737847
v -0.737847 0.985912 -1.277988
v 0.000000 -0.359569 -1.325166
v 0.000000 0.359569 -1.571627
v 0.785813 0.359569 -1.361069
v 0.662583 -0.359569 -1.147627
v 1.361069 0.359569 -0.785813
v 1.147628 -0.359569 -0.662583
v 1.571627 0.359569 0.000000
v 1.325166 -0.359569 0.000000
v 1.361069 0.359569 0.785813
v 1.147627 -0.359569 0.662583
v 0.785813 0.359569 1.361069
v 0.662583 -0.359569 1.147627
v -0.000000 0.359569 1.571627
v -0.000000 -0.359569 1.325166
v -0.785813 0.359569 1.361069
v -0.662583 -0.359569 1.147627
v -1.361069 0.359569 0.785813
v -1.147628 -0.359569 0.662583
v -1.571627 0.359569 -0.000000
v -1.325166 -0.359569 -0.000000
v -1.361069 0.359569 -0.785813
v -1.147628 -0.359569 -0.662583
v -0.785814 0.359569 -1.361068
v -0.662583 -0.359569 -1.147627
v 0.842717 1.099946 -1.459629
v 0.000000 1.099946 -1.685434
v 1.459629 1.099946 -0.842717
v 1.685434 1.099946 0.000000
v 1.459629 1.099946 0.842717
v 0.842717 1.099946 1.459629
v -0.000000 1.099946 1.685434
v -0.842717 1.099946 1.459629
v -1.459629 1.099946 0.842717
v -1.685434 1.099946 -0.000000
v -1.459629 1.099946 -0.842717
v -0.842717 1.099946 -1.459628
vt 1.000000 0.833333
vt 1.000000 1.000000
vt 0.916667 1.000000
vt 0.916667 0.833333
vt 0.833333 1.000000
vt 0.833333 0.833333
vt 0.750000 1.000000
vt 0.750000 0.833333
vt 0.666667 1.000000
vt 0.666667 0.833333
vt 0.583333 1.000000
vt 0.583333 0.833333
vt 0.500000 1.000000
vt 0.500000 0.833333
vt 0.416667 1.000000
vt 0.416667 0.833333
vt 0.333333 1.000000
vt 0.333333 0.833333
vt 0.250000 1.000000
vt 0.250000 0.833333
vt 0.166667 1.000000
vt 0.166667 0.833333
vt 0.083333 1.000000
vt 0.083333 0.833333
vt 0.000000 1.000000
vt 0.000000 0.833333
vt 0.083333 0.500000
vt 0.083333 0.666667
vt 0.000000 0.666667
vt 0.000000 0.500000
vt 0.166667 0.500000
vt 0.166667 0.666667
vt 0.250000 0.500000
vt 0.250000 0.666667
vt 0.333333 0.500000
vt 0.333333 0.666667
vt 0.416667 0.500000
vt 0.416667 0.666667
vt 0.500000 0.500000
vt 0.500000 0.666667
vt 0.583333 0.500000
vt 0.583333 0.666667
vt 0.666667 0.500000
vt 0.666667 0.666667
vt 0.750000 0.500000
vt 0.750000 0.666667
vt 0.833333 0.500000
vt 0.833333 0.666667
vt 0.916667 0.500000
vt 0.916667 0.666667
vt 1.000000 0.500000
vt 1.000000 0.666667
vt 0.370000 0.457846
vt 0.457846 0.370000
vt 0.457846 0.370000
vt 0.370000 0.457846
vt 0.542154 0.370000
vt 0.510000 0.250000
vt 0.510000 0.250000
vt 0.542154 0.370000
vt 0.750000 0.490000
vt 0.870000 0.457846
vt 0.957846 0.370000
vt 0.990000 0.250000
vt 0.957846 0.130000
vt 0.870000 0.042154
vt 0.750000 0.010000
vt 0.630000 0.042154
vt 0.542154 0.130000
vt 0.630000 0.457846
vt 0.916667 0.500000
vt 1.000000 0.500000
vt 0.870000 0.457846
vt 0.957846 0.370000
vt 0.333333 0.500000
vt 0.416667 0.500000
vt 0.750000 0.500000
vt 0.833333 0.500000
vt 0.542154 0.130000
vt 0.750000 0.490000
vt 0.630000 0.042154
vt 0.166667 0.500000
vt 0.250000 0.500000
vt 0.583333 0.500000
vt 0.666667 0.500000
vt 0.750000 0.010000
vt 0.000000 0.500000
vt 0.083333 0.500000
vt 0.166667 0.500000
vt 0.250000 0.500000
vt 0.333333 0.500000
vt 0.416667 0.500000
vt 0.500000 0.500000
vt 0.500000 0.500000
vt 0.583333 0.500000
vt 0.666667 0.500000
vt 0.750000 0.500000
vt 0.000000 0.500000
vt 0.083333 0.500000
vt 0.916667 0.500000
vt 1.000000 0.500000
vt 0.833333 0.500000
vt 0.990000 0.250000
vt 0.630000 0.457846
vt 0.957846 0.130000
vt 0.870000 0.042154
vt 0.457846 0.130000
vt 0.490000 0.250000
vt 0.490000 0.250000
vt 0.457846 0.130000
vt 0.500000 1.000000
vt 0.416667 1.000000
vt 0.916667 1.000000
vt 0.833333 1.000000
vt 0.042154 0.130000
vt 0.010000 0.250000
vt 0.010000 0.250000
vt 0.042154 0.130000
vt 0.250000 0.490000
vt 0.250000 0.490000
vt 0.130000 0.042154
vt 0.130000 0.042154
vt 0.333333 1.000000
vt 0.250000 1.000000
vt 0.750000 1.000000
vt 0.666667 1.000000
vt 0.250000 0.010000
vt 0.250000 0.010000
vt 0.166667 1.000000
vt 0.083333 1.000000
vt 0.583333 1.000000
vt 0.370000 0.042154
vt 0.370000 0.042154
vt 0.833333 1.000000
vt 0.750000 1.000000
vt 0.166667 1.000000
vt 0.083333 1.000000
vt 0.916667 1.000000
vt 0.250000 1.000000
vt 0.333333 1.000000
vt 0.416667 1.000000
vt 0.500000 1.000000
vt 0.583333 1.000000
vt 0.666667 1.000000
vt 0.000000 1.000000
vt 0.000000 1.000000
vt 1.000000 1.000000
vt 1.000000 1.000000
vt 0.042154 0.370000
vt 0.042154 0.370000
vt 0.490000 0.250000
vt 0.130000 0.457846
vt 0.130000 0.457846
vt 0.457846 0.130000
vt 0.042154 0.370000
vt 0.130000 0.457846
vt 0.250000 0.490000
vt 0.370000 0.457846
vt 0.130000 0.042154
vt 0.042154 0.130000
vt 0.370000 0.042154
vt 0.457846 0.370000
vt 0.010000 0.250000
vt 0.250000 0.010000
vt 0.250000 0.460134
vt 0.355067 0.431981
vt 0.431981 0.355067
vt 0.460134 0.250000
vt 0.431981 0.144933
vt 0.355067 0.068019
vt 0.250000 0.039866
vt 0.144933 0.068019
vt 0.068019 0.144933
vt 0.039866 0.250000
vt 0.068019 0.355067
vt 0.144933 0.431981
vn 0.2551 -0.1692 -0.9520
vn 0.6969 -0.1692 -0.6969
vn 0.9520 -0.1692 -0.2551
vn 0.9520 -0.1692 0.2551
vn 0.6969 -0.1692 0.6969
vn 0.2551 -0.1692 0.9520
vn -0.2551 -0.1692 0.9520
vn -0.6969 -0.1692 0.6969
vn -0.9520 -0.1692 0.2551
vn -0.9520 -0.1692 -0.2551
vn -0.6969 -0.1692 -0.6969
vn -0.2551 -0.1692 -0.9520
vn -0.2324 -0.4403 -0.8672
vn -0.2457 -0.3143 -0.9170
vn -0.6349 -0.4403 -0.6349
vn -0.6713 -0.3143 -0.6713
vn -0.8672 -0.4403 -0.2324
vn -0.9170 -0.3143 -0.2457
vn -0.8672 -0.4403 0.2324
vn -0.9170 -0.3143 0.2457
vn -0.6349 -0.4403 0.6349
vn -0.6713 -0.3143 0.6713
vn -0.2324 -0.4403 0.8672
vn -0.2457 -0.3143 0.9170
vn 0.2324 -0.4403 0.8672
vn 0.2457 -0.3143 0.9170
vn 0.6349 -0.4403 0.6349
vn 0.6713 -0.3143 0.6713
vn 0.8672 -0.4403 0.2324
vn 0.9170 -0.3143 0.2457
vn 0.8672 -0.4403 -0.2324
vn 0.9170 -0.3143 -0.2457
vn 0.6349 -0.4403 -0.6349
vn 0.6713 -0.3143 -0.6713
vn 0.2324 -0.4403 -0.8672
vn 0.2457 -0.3143 -0.9170
vn 0.0000 1.0000 0.0000
vn 0.0000 -1.0000 0.0000
vn -0.9659 0.0000 -0.2588
vn -0.9659 0.0000 0.2588
vn -0.7071 0.0000 0.7071
vn -0.2588 0.0000 0.9659
vn 0.2588 0.0000 0.9659
vn 0.7071 0.0000 0.7071
vn 0.9659 0.0000 0.2588
vn -0.2588 0.0000 -0.9659
vn 0.2588 0.0000 -0.9659
vn 0.9659 0.0000 -0.2588
vn -0.7071 0.0000 -0.7071
vn 0.7071 0.0000 -0.7071
vn -0.1270 0.8714 0.4738
vn -0.3468 0.8714 0.3468
vn -0.4738 0.8714 0.1270
vn -0.4738 0.8714 -0.1270
vn -0.3468 0.8714 -0.3468
vn -0.1270 0.8714 -0.4738
vn 0.1270 0.8714 -0.4738
vn 0.3468 0.8714 -0.3468
vn 0.4738 0.8714 -0.1270
vn 0.4738 0.8714 0.1270
vn 0.3468 0.8714 0.3468
vn 0.1270 0.8714 0.4738
usemtl Exterior
s off
f 110/1/1 2/2/1 4/3/1 111/4/1
f 111/4/2 4/3/2 6/5/2 113/6/2
f 113/6/3 6/5/3 8/7/3 115/8/3
f 115/8/4 8/7/4 10/9/4 117/10/4
f 117/10/5 10/9/5 12/11/5 119/12/5
f 119/12/6 12/11/6 14/13/6 121/14/6
f 121/14/7 14/13/7 16/15/7 123/16/7
f 123/16/8 16/15/8 18/17/8 125/18/8
f 125/18/9 18/17/9 20/19/9 127/20/9
f 127/20/10 20/19/10 22/21/10 129/22/10
f 129/22/11 22/21/11 24/23/11 131/24/11
f 131/24/12 24/23/12 2/25/12 110/26/12
f 23/27/13 132/28/13 109/29/13 1/30/13
f 132/28/14 131/24/14 110/26/14 109/29/14
f 21/31/15 130/32/15 132/28/15 23/27/15
f 130/32/16 129/22/16 131/24/16 132/28/16
f 19/33/17 128/34/17 130/32/17 21/31/17
f 128/34/18 127/20/18 129/22/18 130/32/18
f 17/35/19 126/36/19 128/34/19 19/33/19
f 126/36/20 125/18/20 127/20/20 128/34/20
f 15/37/21 124/38/21 126/36/21 17/35/21
f 124/38/22 123/16/22 125/18/22 126/36/22
f 13/39/23 122/40/23 124/38/23 15/37/23
f 122/40/24 121/14/24 123/16/24 124/38/24
f 11/41/25 120/42/25 122/40/25 13/39/25
f 120/42/26 119/12/26 121/14/26 122/40/26
f 9/43/27 118/44/27 120/42/27 11/41/27
f 118/44/28 117/10/28 119/12/28 120/42/28
f 7/45/29 116/46/29 118/44/29 9/43/29
f 116/46/30 115/8/30 117/10/30 118/44/30
f 5/47/31 114/48/31 116/46/31 7/45/31
f 114/48/32 113/6/32 115/8/32 116/46/32
f 3/49/33 112/50/33 114/48/33 5/47/33
f 112/50/34 111/4/34 113/6/34 114/48/34
f 1/51/35 109/52/35 112/50/35 3/49/35
f 109/52/36 110/1/36 111/4/36 112/50/36
usemtl Exterior_Alternative
f 61/53/37 63/54/37 87/55/37 85/56/37
f 35/57/38 34/58/38 58/59/38 59/60/38
f 25/61/38 26/62/38 27/63/38 28/64/38 29/65/38 30/66/38 31/67/38 32/68/38 33/69/38 34/58/38 35/57/38 36/70/38
f 1/51/37 3/49/37 38/71/37 37/72/37
f 27/63/38 26/62/38 50/73/38 51/74/38
f 15/37/37 17/35/37 45/75/37 44/76/37
f 5/47/37 7/45/37 40/77/37 39/78/37
f 34/58/38 33/69/38 57/79/38 58/59/38
f 26/62/38 25/61/38 49/80/38 50/73/38
f 33/69/38 32/68/38 56/81/38 57/79/38
f 19/33/37 21/31/37 47/82/37 46/83/37
f 9/43/37 11/41/37 42/84/37 41/85/37
f 32/68/38 31/67/38 55/86/38 56/81/38
f 23/27/37 1/30/37 37/87/37 48/88/37
f 46/83/39 47/82/39 59/89/39 58/90/39
f 45/75/40 46/83/40 58/90/40 57/91/40
f 44/76/41 45/75/41 57/91/41 56/92/41
f 43/93/42 44/76/42 56/92/42 55/94/42
f 42/84/43 43/93/43 55/94/43 54/95/43
f 41/85/44 42/84/44 54/95/44 53/96/44
f 40/77/45 41/85/45 53/96/45 52/97/45
f 48/88/46 37/87/46 49/98/46 60/99/46
f 37/72/47 38/71/47 50/100/47 49/101/47
f 39/78/48 40/77/48 52/97/48 51/102/48
f 47/82/49 48/88/49 60/99/49 59/89/49
f 38/71/50 39/78/50 51/102/50 50/100/50
f 28/64/38 27/63/38 51/74/38 52/103/38
f 11/41/37 13/39/37 43/93/37 42/84/37
f 21/31/37 23/27/37 48/88/37 47/82/37
f 36/70/38 35/57/38 59/60/38 60/104/38
f 29/65/38 28/64/38 52/103/38 53/105/38
f 25/61/38 36/70/38 60/104/38 49/80/38
f 7/45/37 9/43/37 41/85/37 40/77/37
f 17/35/37 19/33/37 46/83/37 45/75/37
f 30/66/38 29/65/38 53/105/38 54/106/38
f 31/67/38 30/66/38 54/106/38 55/86/38
f 3/49/37 5/47/37 39/78/37 38/71/37
f 13/39/37 15/37/37 44/76/37 43/93/37
f 65/107/39 64/108/39 136/109/39 137/110/39
f 16/15/38 14/13/38 79/111/38 80/112/38
f 6/5/38 4/3/38 73/113/38 75/114/38
f 69/115/37 70/116/37 94/117/37 93/118/37
f 62/119/37 61/53/37 85/56/37 86/120/37
f 68/121/37 69/115/37 93/118/37 92/122/37
f 20/19/38 18/17/38 81/123/38 82/124/38
f 10/9/38 8/7/38 76/125/38 77/126/38
f 67/127/37 68/121/37 92/122/37 91/128/37
f 24/23/38 22/21/38 83/129/38 84/130/38
f 14/13/38 12/11/38 78/131/38 79/111/38
f 66/132/37 67/127/37 91/128/37 90/133/37
f 76/125/48 75/114/48 87/134/48 88/135/48
f 84/130/49 83/129/49 95/136/49 96/137/49
f 75/114/50 73/113/50 85/138/50 87/134/50
f 83/129/39 82/124/39 94/139/39 95/136/39
f 82/124/40 81/123/40 93/140/40 94/139/40
f 81/123/41 80/112/41 92/141/41 93/140/41
f 80/112/42 79/111/42 91/142/42 92/141/42
f 79/111/43 78/131/43 90/143/43 91/142/43
f 78/131/44 77/126/44 89/144/44 90/143/44
f 77/126/45 76/125/45 88/135/45 89/144/45
f 74/145/46 84/130/46 96/137/46 86/146/46
f 73/113/47 74/147/47 86/148/47 85/138/47
f 2/25/38 24/23/38 84/130/38 74/145/38
f 70/116/37 71/149/37 95/150/37 94/117/37
f 63/54/37 64/108/37 88/151/37 87/55/37
f 12/11/38 10/9/38 77/126/38 78/131/38
f 22/21/38 20/19/38 82/124/38 83/129/38
f 71/149/37 72/152/37 96/153/37 95/150/37
f 64/108/37 65/107/37 89/154/37 88/151/37
f 72/152/37 62/119/37 86/120/37 96/153/37
f 8/7/38 6/5/38 75/114/38 76/125/38
f 18/17/38 16/15/38 80/112/38 81/123/38
f 65/107/37 66/132/37 90/133/37 89/154/37
f 4/3/38 2/2/38 74/147/38 73/113/38
f 72/152/44 71/149/44 143/155/44 144/156/44
f 61/53/42 62/119/42 134/157/42 133/158/42
f 69/115/50 68/121/50 140/159/50 141/160/50
f 66/132/49 65/107/49 137/110/49 138/161/49
f 62/119/43 72/152/43 144/156/43 134/157/43
f 63/54/41 61/53/41 133/158/41 135/162/41
f 70/116/48 69/115/48 141/160/48 142/163/48
f 67/127/46 66/132/46 138/161/46 139/164/46
f 64/108/40 63/54/40 135/162/40 136/109/40
f 71/149/45 70/116/45 142/163/45 143/155/45
f 68/121/47 67/127/47 139/164/47 140/159/47
f 98/165/51 97/166/51 133/158/51 134/157/51
f 97/166/52 99/167/52 135/162/52 133/158/52
f 99/167/53 100/168/53 136/109/53 135/162/53
f 100/168/54 101/169/54 137/110/54 136/109/54
f 101/169/55 102/170/55 138/161/55 137/110/55
f 102/170/56 103/171/56 139/164/56 138/161/56
f 103/171/57 104/172/57 140/159/57 139/164/57
f 104/172/58 105/173/58 141/160/58 140/159/58
f 105/173/59 106/174/59 142/163/59 141/160/59
f 106/174/60 107/175/60 143/155/60 142/163/60
f 107/175/61 108/176/61 144/156/61 143/155/61
f 108/176/62 98/165/62 134/157/62 144/156/62
usemtl Material.001
f 97/166/37 98/165/37 108/176/37 107/175/37 106/174/37 105/173/37 104/172/37 103/171/37 102/170/37 101/169/37 100/168/37 99/167/37
